STARTFONT 2.1
FONT -Fondu-Geo 579-Italic-Medium-R-Normal--12-120-75-75-P-202-MacRoman-1
SIZE 12 75 75
FONTBOUNDINGBOX 269 16 -1 -3
COMMENT Created by Fondu from a mac NFNT/FONT resource
STARTPROPERTIES 17
FOUNDRY "Fondu"
FAMILY_NAME "Geo 579-Italic"
WEIGHT_NAME "Medium"
SLANT "R"
SETWIDTH_NAME "Normal"
ADD_STYLE_NAME ""
PIXEL_SIZE 12
POINT_SIZE 120
RESOLUTION_X 75
RESOLUTION_Y 75
SPACING "P"
AVERAGE_WIDTH 202
CHARSET_REGISTRY "MacRoman"
CHARSET_ENCODING "1"
FONT_ASCENT 13
FONT_DESCENT 3
FACE_NAME "Geo 579-Italic"
ENDPROPERTIES
CHARS 227
STARTCHAR Eth
ENCODING 1
SWIDTH 736 0
DWIDTH 9 0
BBX 8 9 0 0
BITMAP
3E
63
41
41
F1
41
C2
84
F8
ENDCHAR
STARTCHAR eth
ENCODING 2
SWIDTH 606 0
DWIDTH 7 0
BBX 6 9 1 0
BITMAP
34
18
28
3C
44
84
84
88
70
ENDCHAR
STARTCHAR Lslash
ENCODING 3
SWIDTH 500 0
DWIDTH 255 0
BBX 0 0 -1 -3
BITMAP
ENDCHAR
STARTCHAR lslash
ENCODING 4
SWIDTH 500 0
DWIDTH 255 0
BBX 0 0 -1 -3
BITMAP
ENDCHAR
STARTCHAR Scaron
ENCODING 5
SWIDTH 616 0
DWIDTH 7 0
BBX 7 12 0 0
BITMAP
0A
0C
00
3C
64
42
60
38
0C
84
8C
78
ENDCHAR
STARTCHAR scaron
ENCODING 6
SWIDTH 468 0
DWIDTH 6 0
BBX 5 9 0 0
BITMAP
38
18
00
38
48
60
18
90
70
ENDCHAR
STARTCHAR Yacute
ENCODING 7
SWIDTH 613 0
DWIDTH 7 0
BBX 7 12 1 0
BITMAP
08
10
00
86
C4
48
50
70
20
60
40
40
ENDCHAR
STARTCHAR yacute
ENCODING 8
SWIDTH 556 0
DWIDTH 7 0
BBX 6 12 1 -3
BITMAP
08
10
00
84
88
C8
50
70
60
40
C0
80
ENDCHAR
STARTCHAR char000a
ENCODING 10
SWIDTH 500 0
DWIDTH 255 0
BBX 0 0 -1 -3
BITMAP
ENDCHAR
STARTCHAR Thorn
ENCODING 11
SWIDTH 560 0
DWIDTH 7 0
BBX 7 9 0 0
BITMAP
20
3C
62
42
42
44
F8
80
80
ENDCHAR
STARTCHAR thorn
ENCODING 12
SWIDTH 664 0
DWIDTH 8 0
BBX 8 12 0 -3
BITMAP
30
20
20
3E
61
41
41
62
FC
80
80
80
ENDCHAR
STARTCHAR Zcaron
ENCODING 14
SWIDTH 500 0
DWIDTH 255 0
BBX 0 0 -1 -3
BITMAP
ENDCHAR
STARTCHAR zcaron
ENCODING 15
SWIDTH 500 0
DWIDTH 255 0
BBX 0 0 -1 -3
BITMAP
ENDCHAR
STARTCHAR char0010
ENCODING 16
SWIDTH 500 0
DWIDTH 255 0
BBX 0 0 -1 -3
BITMAP
ENDCHAR
STARTCHAR char0011
ENCODING 17
SWIDTH 500 0
DWIDTH 255 0
BBX 0 0 -1 -3
BITMAP
ENDCHAR
STARTCHAR char0012
ENCODING 18
SWIDTH 500 0
DWIDTH 255 0
BBX 0 0 -1 -3
BITMAP
ENDCHAR
STARTCHAR char0013
ENCODING 19
SWIDTH 500 0
DWIDTH 255 0
BBX 0 0 -1 -3
BITMAP
ENDCHAR
STARTCHAR char0014
ENCODING 20
SWIDTH 500 0
DWIDTH 255 0
BBX 0 0 -1 -3
BITMAP
ENDCHAR
STARTCHAR onehalf
ENCODING 21
SWIDTH 867 0
DWIDTH 10 0
BBX 9 9 2 0
BITMAP
4300
C200
4400
4800
9300
2480
2300
4200
8F00
ENDCHAR
STARTCHAR onequarter
ENCODING 22
SWIDTH 867 0
DWIDTH 10 0
BBX 9 9 2 0
BITMAP
C100
C200
4400
4800
9080
2300
2300
4F00
8100
ENDCHAR
STARTCHAR onesuperior
ENCODING 23
SWIDTH 367 0
DWIDTH 4 0
BBX 2 5 2 4
BITMAP
80
C0
80
80
80
ENDCHAR
STARTCHAR threequarters
ENCODING 24
SWIDTH 868 0
DWIDTH 10 0
BBX 9 9 1 0
BITMAP
6100
6200
2400
A480
C900
1380
2300
2700
4100
ENDCHAR
STARTCHAR threesuperior
ENCODING 25
SWIDTH 367 0
DWIDTH 4 0
BBX 4 6 0 3
BITMAP
70
20
60
10
90
E0
ENDCHAR
STARTCHAR twosuperior
ENCODING 26
SWIDTH 367 0
DWIDTH 4 0
BBX 4 5 0 4
BITMAP
60
50
20
40
E0
ENDCHAR
STARTCHAR brokenbar
ENCODING 27
SWIDTH 500 0
DWIDTH 6 0
BBX 2 10 2 -2
BITMAP
40
40
40
40
00
00
80
80
80
80
ENDCHAR
STARTCHAR minus
ENCODING 28
SWIDTH 319 0
DWIDTH 4 0
BBX 2 1 1 3
BITMAP
C0
ENDCHAR
STARTCHAR multiply
ENCODING 29
SWIDTH 833 0
DWIDTH 10 0
BBX 7 7 2 0
BITMAP
42
66
28
10
28
CC
84
ENDCHAR
STARTCHAR char001e
ENCODING 30
SWIDTH 500 0
DWIDTH 255 0
BBX 0 0 -1 -3
BITMAP
ENDCHAR
STARTCHAR char001f
ENCODING 31
SWIDTH 500 0
DWIDTH 255 0
BBX 0 0 -1 -3
BITMAP
ENDCHAR
STARTCHAR space
ENCODING 32
SWIDTH 278 0
DWIDTH 3 0
BBX 0 0 0 -3
BITMAP
ENDCHAR
STARTCHAR exclam
ENCODING 33
SWIDTH 278 0
DWIDTH 3 0
BBX 2 9 0 0
BITMAP
40
40
40
40
80
80
00
80
80
ENDCHAR
STARTCHAR quotedbl
ENCODING 34
SWIDTH 314 0
DWIDTH 4 0
BBX 3 3 1 5
BITMAP
A0
A0
A0
ENDCHAR
STARTCHAR numbersign
ENCODING 35
SWIDTH 769 0
DWIDTH 9 0
BBX 8 9 0 0
BITMAP
0D
0A
1A
7F
24
FE
48
50
90
ENDCHAR
STARTCHAR dollar
ENCODING 36
SWIDTH 556 0
DWIDTH 7 0
BBX 7 11 0 -1
BITMAP
08
3C
6A
4A
70
38
14
A4
EC
70
20
ENDCHAR
STARTCHAR percent
ENCODING 37
SWIDTH 875 0
DWIDTH 10 0
BBX 8 9 1 0
BITMAP
62
A2
A4
A8
C8
13
25
45
46
ENDCHAR
STARTCHAR ampersand
ENCODING 38
SWIDTH 685 0
DWIDTH 8 0
BBX 7 9 0 0
BITMAP
0C
14
14
18
78
4A
8C
9C
66
ENDCHAR
STARTCHAR quotesingle
ENCODING 39
SWIDTH 163 0
DWIDTH 2 0
BBX 1 3 1 5
BITMAP
80
80
80
ENDCHAR
STARTCHAR parenleft
ENCODING 40
SWIDTH 398 0
DWIDTH 5 0
BBX 4 12 1 -3
BITMAP
10
30
20
40
40
80
80
80
80
80
C0
40
ENDCHAR
STARTCHAR parenright
ENCODING 41
SWIDTH 398 0
DWIDTH 5 0
BBX 4 12 0 -3
BITMAP
20
30
10
10
10
10
10
20
20
60
C0
80
ENDCHAR
STARTCHAR asterisk
ENCODING 42
SWIDTH 500 0
DWIDTH 6 0
BBX 5 5 1 4
BITMAP
20
A8
F0
60
A0
ENDCHAR
STARTCHAR plus
ENCODING 43
SWIDTH 833 0
DWIDTH 10 0
BBX 6 7 2 0
BITMAP
10
10
10
FC
20
20
20
ENDCHAR
STARTCHAR comma
ENCODING 44
SWIDTH 278 0
DWIDTH 3 0
BBX 2 4 0 -2
BITMAP
40
40
80
80
ENDCHAR
STARTCHAR hyphen
ENCODING 45
SWIDTH 319 0
DWIDTH 4 0
BBX 2 1 1 3
BITMAP
C0
ENDCHAR
STARTCHAR period
ENCODING 46
SWIDTH 278 0
DWIDTH 3 0
BBX 1 2 1 0
BITMAP
80
80
ENDCHAR
STARTCHAR slash
ENCODING 47
SWIDTH 278 0
DWIDTH 3 0
BBX 5 10 -1 -1
BITMAP
08
08
10
10
20
20
40
40
80
80
ENDCHAR
STARTCHAR zero
ENCODING 48
SWIDTH 556 0
DWIDTH 7 0
BBX 6 9 0 0
BITMAP
38
64
44
44
84
88
88
98
70
ENDCHAR
STARTCHAR one
ENCODING 49
SWIDTH 556 0
DWIDTH 7 0
BBX 3 9 2 0
BITMAP
20
E0
A0
60
40
40
40
C0
80
ENDCHAR
STARTCHAR two
ENCODING 50
SWIDTH 556 0
DWIDTH 7 0
BBX 6 9 0 0
BITMAP
3C
64
04
08
18
10
20
40
F8
ENDCHAR
STARTCHAR three
ENCODING 51
SWIDTH 556 0
DWIDTH 7 0
BBX 6 9 0 0
BITMAP
3C
04
18
38
4C
04
04
88
F0
ENDCHAR
STARTCHAR four
ENCODING 52
SWIDTH 556 0
DWIDTH 7 0
BBX 6 9 0 0
BITMAP
04
08
18
28
48
50
F8
10
10
ENDCHAR
STARTCHAR five
ENCODING 53
SWIDTH 556 0
DWIDTH 7 0
BBX 6 9 0 0
BITMAP
3C
20
60
78
44
04
04
88
70
ENDCHAR
STARTCHAR six
ENCODING 54
SWIDTH 556 0
DWIDTH 7 0
BBX 6 9 0 0
BITMAP
04
08
10
30
78
44
84
88
70
ENDCHAR
STARTCHAR seven
ENCODING 55
SWIDTH 556 0
DWIDTH 7 0
BBX 6 9 1 0
BITMAP
7C
08
08
10
30
20
40
40
80
ENDCHAR
STARTCHAR eight
ENCODING 56
SWIDTH 556 0
DWIDTH 7 0
BBX 6 9 0 0
BITMAP
1C
24
44
64
38
44
84
88
70
ENDCHAR
STARTCHAR nine
ENCODING 57
SWIDTH 556 0
DWIDTH 7 0
BBX 5 9 1 0
BITMAP
30
48
88
98
70
20
40
40
80
ENDCHAR
STARTCHAR colon
ENCODING 58
SWIDTH 278 0
DWIDTH 3 0
BBX 2 6 1 0
BITMAP
40
40
00
00
80
80
ENDCHAR
STARTCHAR semicolon
ENCODING 59
SWIDTH 278 0
DWIDTH 3 0
BBX 3 8 0 -2
BITMAP
20
20
00
00
00
40
C0
80
ENDCHAR
STARTCHAR less
ENCODING 60
SWIDTH 833 0
DWIDTH 10 0
BBX 7 7 2 0
BITMAP
02
0C
70
80
60
18
04
ENDCHAR
STARTCHAR equal
ENCODING 61
SWIDTH 833 0
DWIDTH 10 0
BBX 7 3 2 2
BITMAP
FE
00
FE
ENDCHAR
STARTCHAR greater
ENCODING 62
SWIDTH 833 0
DWIDTH 10 0
BBX 7 7 1 0
BITMAP
40
30
0C
02
1C
60
80
ENDCHAR
STARTCHAR question
ENCODING 63
SWIDTH 491 0
DWIDTH 6 0
BBX 5 9 1 0
BITMAP
70
C8
08
30
60
C0
00
80
80
ENDCHAR
STARTCHAR at
ENCODING 64
SWIDTH 1000 0
DWIDTH 12 0
BBX 12 11 0 -2
BITMAP
07C0
1820
2010
4790
4990
9120
9360
9D80
C000
6180
3E00
ENDCHAR
STARTCHAR A
ENCODING 65
SWIDTH 727 0
DWIDTH 9 0
BBX 8 9 0 0
BITMAP
06
0E
0A
12
12
23
7F
41
81
ENDCHAR
STARTCHAR B
ENCODING 66
SWIDTH 620 0
DWIDTH 7 0
BBX 6 9 0 0
BITMAP
3C
64
44
44
78
C4
84
8C
F8
ENDCHAR
STARTCHAR C
ENCODING 67
SWIDTH 750 0
DWIDTH 9 0
BBX 8 9 1 0
BITMAP
1F
21
40
80
80
80
80
C2
7C
ENDCHAR
STARTCHAR D
ENCODING 68
SWIDTH 736 0
DWIDTH 9 0
BBX 8 9 0 0
BITMAP
3E
63
41
41
41
C1
82
84
F8
ENDCHAR
STARTCHAR E
ENCODING 69
SWIDTH 569 0
DWIDTH 7 0
BBX 6 9 0 0
BITMAP
7C
40
40
40
78
C0
80
80
F8
ENDCHAR
STARTCHAR F
ENCODING 70
SWIDTH 551 0
DWIDTH 7 0
BBX 6 9 0 0
BITMAP
7C
40
40
40
78
C0
80
80
80
ENDCHAR
STARTCHAR G
ENCODING 71
SWIDTH 875 0
DWIDTH 10 0
BBX 9 9 1 0
BITMAP
1F00
2100
4000
8000
8780
8080
8100
C200
7C00
ENDCHAR
STARTCHAR H
ENCODING 72
SWIDTH 775 0
DWIDTH 9 0
BBX 8 9 0 0
BITMAP
61
41
41
41
7E
82
82
82
86
ENDCHAR
STARTCHAR I
ENCODING 73
SWIDTH 278 0
DWIDTH 3 0
BBX 2 9 0 0
BITMAP
40
40
40
40
C0
80
80
80
80
ENDCHAR
STARTCHAR J
ENCODING 74
SWIDTH 477 0
DWIDTH 6 0
BBX 5 9 0 0
BITMAP
78
08
08
08
18
10
10
30
C0
ENDCHAR
STARTCHAR K
ENCODING 75
SWIDTH 655 0
DWIDTH 8 0
BBX 8 9 0 0
BITMAP
23
66
48
50
60
F0
98
88
8C
ENDCHAR
STARTCHAR L
ENCODING 76
SWIDTH 481 0
DWIDTH 6 0
BBX 4 9 0 0
BITMAP
20
60
40
40
40
C0
80
80
F0
ENDCHAR
STARTCHAR M
ENCODING 77
SWIDTH 993 0
DWIDTH 12 0
BBX 11 9 1 0
BITMAP
6020
6060
70E0
51A0
5140
DA40
8C40
8C40
88C0
ENDCHAR
STARTCHAR N
ENCODING 78
SWIDTH 773 0
DWIDTH 9 0
BBX 8 9 0 0
BITMAP
61
61
71
51
5A
8A
8E
86
86
ENDCHAR
STARTCHAR O
ENCODING 79
SWIDTH 891 0
DWIDTH 11 0
BBX 9 9 1 0
BITMAP
1F00
2180
4080
8080
8080
8080
8100
C200
7C00
ENDCHAR
STARTCHAR P
ENCODING 80
SWIDTH 560 0
DWIDTH 7 0
BBX 7 9 0 0
BITMAP
3C
22
62
42
44
78
C0
80
80
ENDCHAR
STARTCHAR Q
ENCODING 81
SWIDTH 891 0
DWIDTH 11 0
BBX 10 9 0 0
BITMAP
1F80
30C0
4040
C040
8040
80C0
8280
C300
3C80
ENDCHAR
STARTCHAR R
ENCODING 82
SWIDTH 616 0
DWIDTH 7 0
BBX 7 9 0 0
BITMAP
3C
62
62
42
4C
F0
D0
98
8C
ENDCHAR
STARTCHAR S
ENCODING 83
SWIDTH 616 0
DWIDTH 7 0
BBX 6 9 1 0
BITMAP
38
4C
44
40
70
08
88
98
F0
ENDCHAR
STARTCHAR T
ENCODING 84
SWIDTH 507 0
DWIDTH 6 0
BBX 5 9 1 0
BITMAP
F8
20
20
40
40
40
40
C0
80
ENDCHAR
STARTCHAR U
ENCODING 85
SWIDTH 748 0
DWIDTH 9 0
BBX 8 9 1 0
BITMAP
41
41
41
C3
82
82
82
C4
78
ENDCHAR
STARTCHAR V
ENCODING 86
SWIDTH 639 0
DWIDTH 8 0
BBX 7 9 1 0
BITMAP
82
86
84
88
C8
D0
70
60
40
ENDCHAR
STARTCHAR W
ENCODING 87
SWIDTH 972 0
DWIDTH 12 0
BBX 11 9 1 0
BITMAP
C220
C620
CA40
CA40
D280
5280
6300
6300
4200
ENDCHAR
STARTCHAR X
ENCODING 88
SWIDTH 660 0
DWIDTH 8 0
BBX 9 9 0 0
BITMAP
2080
3100
1200
1C00
0800
1C00
2400
4600
8200
ENDCHAR
STARTCHAR Y
ENCODING 89
SWIDTH 613 0
DWIDTH 7 0
BBX 7 9 1 0
BITMAP
82
C4
48
50
70
20
60
40
40
ENDCHAR
STARTCHAR Z
ENCODING 90
SWIDTH 620 0
DWIDTH 7 0
BBX 8 9 -1 0
BITMAP
3F
02
04
0C
18
30
20
40
FC
ENDCHAR
STARTCHAR bracketleft
ENCODING 91
SWIDTH 308 0
DWIDTH 4 0
BBX 4 12 0 -3
BITMAP
30
20
20
40
40
40
40
C0
80
80
80
C0
ENDCHAR
STARTCHAR backslash
ENCODING 92
SWIDTH 278 0
DWIDTH 3 0
BBX 1 10 1 -1
BITMAP
80
80
80
80
80
80
80
80
80
80
ENDCHAR
STARTCHAR bracketright
ENCODING 93
SWIDTH 308 0
DWIDTH 4 0
BBX 4 12 -1 -3
BITMAP
30
10
10
10
30
20
20
20
20
40
40
C0
ENDCHAR
STARTCHAR asciicircum
ENCODING 94
SWIDTH 1000 0
DWIDTH 12 0
BBX 6 4 3 5
BITMAP
18
28
4C
84
ENDCHAR
STARTCHAR underscore
ENCODING 95
SWIDTH 500 0
DWIDTH 6 0
BBX 5 1 0 -3
BITMAP
F8
ENDCHAR
STARTCHAR grave
ENCODING 96
SWIDTH 500 0
DWIDTH 6 0
BBX 1 2 2 7
BITMAP
80
80
ENDCHAR
STARTCHAR a
ENCODING 97
SWIDTH 664 0
DWIDTH 8 0
BBX 6 6 1 0
BITMAP
3C
CC
84
84
88
78
ENDCHAR
STARTCHAR b
ENCODING 98
SWIDTH 664 0
DWIDTH 8 0
BBX 7 9 0 0
BITMAP
20
40
40
5C
62
C2
82
C4
B8
ENDCHAR
STARTCHAR c
ENCODING 99
SWIDTH 536 0
DWIDTH 6 0
BBX 6 6 1 0
BITMAP
38
C4
80
80
88
70
ENDCHAR
STARTCHAR d
ENCODING 100
SWIDTH 674 0
DWIDTH 8 0
BBX 7 9 0 0
BITMAP
02
02
02
3A
46
84
84
8C
74
ENDCHAR
STARTCHAR e
ENCODING 101
SWIDTH 625 0
DWIDTH 7 0
BBX 6 6 1 0
BITMAP
38
C4
FC
80
88
70
ENDCHAR
STARTCHAR f
ENCODING 102
SWIDTH 309 0
DWIDTH 4 0
BBX 3 9 1 0
BITMAP
20
40
40
E0
40
80
80
80
80
ENDCHAR
STARTCHAR g
ENCODING 103
SWIDTH 664 0
DWIDTH 8 0
BBX 7 9 0 -3
BITMAP
3E
66
42
C2
44
7C
04
88
F0
ENDCHAR
STARTCHAR h
ENCODING 104
SWIDTH 593 0
DWIDTH 7 0
BBX 6 9 0 0
BITMAP
20
60
40
58
64
C4
84
8C
88
ENDCHAR
STARTCHAR i
ENCODING 105
SWIDTH 250 0
DWIDTH 3 0
BBX 2 9 0 0
BITMAP
40
00
00
40
C0
80
80
80
80
ENDCHAR
STARTCHAR j
ENCODING 106
SWIDTH 259 0
DWIDTH 3 0
BBX 4 12 -1 -3
BITMAP
10
10
00
30
20
20
20
60
40
40
40
80
ENDCHAR
STARTCHAR k
ENCODING 107
SWIDTH 542 0
DWIDTH 7 0
BBX 6 9 0 0
BITMAP
20
40
40
4C
50
E0
A0
90
98
ENDCHAR
STARTCHAR l
ENCODING 108
SWIDTH 250 0
DWIDTH 3 0
BBX 2 9 0 0
BITMAP
40
40
40
40
C0
80
80
80
80
ENDCHAR
STARTCHAR m
ENCODING 109
SWIDTH 907 0
DWIDTH 11 0
BBX 9 6 1 0
BITMAP
7B00
4C80
8880
8880
8880
9900
ENDCHAR
STARTCHAR n
ENCODING 110
SWIDTH 593 0
DWIDTH 7 0
BBX 5 6 1 0
BITMAP
70
C8
88
88
88
90
ENDCHAR
STARTCHAR o
ENCODING 111
SWIDTH 618 0
DWIDTH 7 0
BBX 6 6 1 0
BITMAP
38
44
84
84
88
70
ENDCHAR
STARTCHAR p
ENCODING 112
SWIDTH 664 0
DWIDTH 8 0
BBX 8 9 0 -3
BITMAP
3E
61
41
41
62
FC
80
80
80
ENDCHAR
STARTCHAR q
ENCODING 113
SWIDTH 664 0
DWIDTH 8 0
BBX 6 9 1 -3
BITMAP
3C
CC
84
84
8C
78
08
08
08
ENDCHAR
STARTCHAR r
ENCODING 114
SWIDTH 356 0
DWIDTH 4 0
BBX 4 6 1 0
BITMAP
70
40
C0
80
80
80
ENDCHAR
STARTCHAR s
ENCODING 115
SWIDTH 468 0
DWIDTH 6 0
BBX 4 6 1 0
BITMAP
70
90
C0
30
90
E0
ENDCHAR
STARTCHAR t
ENCODING 116
SWIDTH 315 0
DWIDTH 4 0
BBX 2 8 1 0
BITMAP
40
40
C0
80
80
80
80
80
ENDCHAR
STARTCHAR u
ENCODING 117
SWIDTH 579 0
DWIDTH 7 0
BBX 5 6 1 0
BITMAP
48
88
88
88
90
60
ENDCHAR
STARTCHAR v
ENCODING 118
SWIDTH 560 0
DWIDTH 7 0
BBX 6 6 1 0
BITMAP
84
88
98
50
60
40
ENDCHAR
STARTCHAR w
ENCODING 119
SWIDTH 843 0
DWIDTH 10 0
BBX 9 6 1 0
BITMAP
8880
9900
9900
A600
C600
4400
ENDCHAR
STARTCHAR x
ENCODING 120
SWIDTH 551 0
DWIDTH 7 0
BBX 7 6 0 0
BITMAP
66
2C
18
38
68
CC
ENDCHAR
STARTCHAR y
ENCODING 121
SWIDTH 556 0
DWIDTH 7 0
BBX 6 9 1 -3
BITMAP
84
88
C8
50
70
60
40
40
80
ENDCHAR
STARTCHAR z
ENCODING 122
SWIDTH 477 0
DWIDTH 6 0
BBX 6 6 0 0
BITMAP
7C
08
10
20
40
F8
ENDCHAR
STARTCHAR braceleft
ENCODING 123
SWIDTH 500 0
DWIDTH 6 0
BBX 5 11 1 -2
BITMAP
18
30
20
20
60
80
40
40
40
40
60
ENDCHAR
STARTCHAR bar
ENCODING 124
SWIDTH 500 0
DWIDTH 6 0
BBX 3 12 2 -3
BITMAP
20
20
20
20
40
40
40
40
80
80
80
80
ENDCHAR
STARTCHAR braceright
ENCODING 125
SWIDTH 500 0
DWIDTH 6 0
BBX 5 11 0 -2
BITMAP
30
10
10
10
10
08
10
20
20
60
C0
ENDCHAR
STARTCHAR asciitilde
ENCODING 126
SWIDTH 833 0
DWIDTH 10 0
BBX 9 2 1 3
BITMAP
0080
FF00
ENDCHAR
STARTCHAR Adieresis
ENCODING 128
SWIDTH 727 0
DWIDTH 9 0
BBX 8 12 -1 0
BITMAP
05
00
00
06
0A
0A
12
32
23
7F
41
81
ENDCHAR
STARTCHAR Aring
ENCODING 129
SWIDTH 727 0
DWIDTH 9 0
BBX 8 13 -1 0
BITMAP
03
05
05
02
02
06
0E
0A
11
21
7F
41
81
ENDCHAR
STARTCHAR Ccedilla
ENCODING 130
SWIDTH 750 0
DWIDTH 9 0
BBX 8 12 1 -3
BITMAP
1F
21
40
80
80
80
80
C2
7C
10
08
30
ENDCHAR
STARTCHAR Eacute
ENCODING 131
SWIDTH 569 0
DWIDTH 7 0
BBX 6 12 0 0
BITMAP
04
08
00
7C
40
40
40
78
C0
80
80
F8
ENDCHAR
STARTCHAR Ntilde
ENCODING 132
SWIDTH 773 0
DWIDTH 9 0
BBX 8 12 0 0
BITMAP
0E
00
00
61
61
51
53
CA
8A
8E
86
86
ENDCHAR
STARTCHAR Odieresis
ENCODING 133
SWIDTH 891 0
DWIDTH 11 0
BBX 9 12 1 0
BITMAP
0F00
0000
0000
1F00
2180
4080
8080
8080
8080
8100
C200
7C00
ENDCHAR
STARTCHAR Udieresis
ENCODING 134
SWIDTH 748 0
DWIDTH 9 0
BBX 9 12 0 0
BITMAP
0B00
0000
4080
4080
4180
4180
C100
8100
8300
8200
C600
7800
ENDCHAR
STARTCHAR aacute
ENCODING 135
SWIDTH 664 0
DWIDTH 8 0
BBX 6 9 1 0
BITMAP
08
10
00
3C
CC
84
84
88
78
ENDCHAR
STARTCHAR agrave
ENCODING 136
SWIDTH 664 0
DWIDTH 8 0
BBX 6 9 1 0
BITMAP
10
10
00
3C
CC
84
84
88
78
ENDCHAR
STARTCHAR acircumflex
ENCODING 137
SWIDTH 664 0
DWIDTH 8 0
BBX 6 9 1 0
BITMAP
18
28
00
3C
CC
84
84
88
78
ENDCHAR
STARTCHAR adieresis
ENCODING 138
SWIDTH 664 0
DWIDTH 8 0
BBX 6 9 1 0
BITMAP
28
00
00
3C
CC
84
84
88
78
ENDCHAR
STARTCHAR atilde
ENCODING 139
SWIDTH 664 0
DWIDTH 8 0
BBX 6 9 1 0
BITMAP
18
28
00
3C
CC
84
84
88
78
ENDCHAR
STARTCHAR aring
ENCODING 140
SWIDTH 664 0
DWIDTH 8 0
BBX 6 10 0 0
BITMAP
18
14
18
10
3C
CC
84
84
88
78
ENDCHAR
STARTCHAR ccedilla
ENCODING 141
SWIDTH 536 0
DWIDTH 6 0
BBX 6 9 1 -3
BITMAP
38
C4
80
80
88
F0
20
10
E0
ENDCHAR
STARTCHAR eacute
ENCODING 142
SWIDTH 625 0
DWIDTH 7 0
BBX 6 9 1 0
BITMAP
08
10
00
38
C4
FC
80
88
70
ENDCHAR
STARTCHAR egrave
ENCODING 143
SWIDTH 625 0
DWIDTH 7 0
BBX 6 9 1 0
BITMAP
10
10
00
38
C4
FC
80
88
70
ENDCHAR
STARTCHAR ecircumflex
ENCODING 144
SWIDTH 625 0
DWIDTH 7 0
BBX 6 9 1 0
BITMAP
18
38
00
38
C4
FC
80
88
70
ENDCHAR
STARTCHAR edieresis
ENCODING 145
SWIDTH 625 0
DWIDTH 7 0
BBX 6 9 1 0
BITMAP
3C
00
00
38
C4
FC
80
88
70
ENDCHAR
STARTCHAR iacute
ENCODING 146
SWIDTH 250 0
DWIDTH 3 0
BBX 3 9 0 0
BITMAP
20
40
00
40
C0
80
80
80
80
ENDCHAR
STARTCHAR igrave
ENCODING 147
SWIDTH 250 0
DWIDTH 3 0
BBX 2 9 0 0
BITMAP
40
40
00
40
40
80
80
80
80
ENDCHAR
STARTCHAR icircumflex
ENCODING 148
SWIDTH 250 0
DWIDTH 3 0
BBX 3 9 0 0
BITMAP
60
A0
00
40
40
80
80
80
80
ENDCHAR
STARTCHAR idieresis
ENCODING 149
SWIDTH 250 0
DWIDTH 3 0
BBX 3 9 0 0
BITMAP
A0
00
40
40
80
80
80
80
80
ENDCHAR
STARTCHAR ntilde
ENCODING 150
SWIDTH 593 0
DWIDTH 7 0
BBX 6 9 0 0
BITMAP
1C
14
00
78
44
C4
84
8C
88
ENDCHAR
STARTCHAR oacute
ENCODING 151
SWIDTH 618 0
DWIDTH 7 0
BBX 6 9 1 0
BITMAP
0C
18
00
38
44
84
84
88
70
ENDCHAR
STARTCHAR ograve
ENCODING 152
SWIDTH 618 0
DWIDTH 7 0
BBX 6 9 1 0
BITMAP
10
08
00
38
44
84
84
88
70
ENDCHAR
STARTCHAR ocircumflex
ENCODING 153
SWIDTH 618 0
DWIDTH 7 0
BBX 6 9 1 0
BITMAP
18
34
04
38
44
84
84
88
70
ENDCHAR
STARTCHAR odieresis
ENCODING 154
SWIDTH 618 0
DWIDTH 7 0
BBX 6 9 1 0
BITMAP
34
24
00
38
44
84
84
88
70
ENDCHAR
STARTCHAR otilde
ENCODING 155
SWIDTH 618 0
DWIDTH 7 0
BBX 6 9 1 0
BITMAP
1C
28
00
38
44
84
84
88
70
ENDCHAR
STARTCHAR uacute
ENCODING 156
SWIDTH 579 0
DWIDTH 7 0
BBX 6 9 0 0
BITMAP
0C
10
00
44
84
84
88
88
70
ENDCHAR
STARTCHAR ugrave
ENCODING 157
SWIDTH 579 0
DWIDTH 7 0
BBX 6 9 0 0
BITMAP
10
08
00
44
84
84
88
88
70
ENDCHAR
STARTCHAR ucircumflex
ENCODING 158
SWIDTH 579 0
DWIDTH 7 0
BBX 6 9 0 0
BITMAP
18
24
00
44
84
84
88
88
70
ENDCHAR
STARTCHAR udieresis
ENCODING 159
SWIDTH 579 0
DWIDTH 7 0
BBX 6 9 0 0
BITMAP
3C
00
44
44
84
8C
88
98
70
ENDCHAR
STARTCHAR dagger
ENCODING 160
SWIDTH 500 0
DWIDTH 6 0
BBX 4 9 2 0
BITMAP
20
20
F0
40
40
40
40
80
80
ENDCHAR
STARTCHAR degree
ENCODING 161
SWIDTH 329 0
DWIDTH 4 0
BBX 3 4 1 5
BITMAP
C0
A0
A0
C0
ENDCHAR
STARTCHAR cent
ENCODING 162
SWIDTH 556 0
DWIDTH 7 0
BBX 5 9 1 0
BITMAP
08
10
78
D0
90
A0
F0
20
20
ENDCHAR
STARTCHAR sterling
ENCODING 163
SWIDTH 556 0
DWIDTH 7 0
BBX 6 9 0 0
BITMAP
38
64
40
40
F0
20
40
E0
F8
ENDCHAR
STARTCHAR section
ENCODING 164
SWIDTH 500 0
DWIDTH 6 0
BBX 5 10 1 -1
BITMAP
38
28
20
70
D8
48
70
20
B0
E0
ENDCHAR
STARTCHAR bullet
ENCODING 165
SWIDTH 590 0
DWIDTH 7 0
BBX 3 4 2 3
BITMAP
60
E0
E0
C0
ENDCHAR
STARTCHAR paragraph
ENCODING 166
SWIDTH 500 0
DWIDTH 6 0
BBX 5 9 1 0
BITMAP
78
E8
E8
D0
50
50
50
60
A0
ENDCHAR
STARTCHAR germandbls
ENCODING 167
SWIDTH 616 0
DWIDTH 7 0
BBX 6 9 1 0
BITMAP
18
24
44
D8
44
C4
84
88
F0
ENDCHAR
STARTCHAR registered
ENCODING 168
SWIDTH 833 0
DWIDTH 10 0
BBX 9 9 1 0
BITMAP
1E00
2100
5D00
A480
B880
A900
AD00
8600
7800
ENDCHAR
STARTCHAR copyright
ENCODING 169
SWIDTH 833 0
DWIDTH 10 0
BBX 9 9 1 0
BITMAP
1E00
2100
5C80
A080
A080
A500
9900
4600
3800
ENDCHAR
STARTCHAR trademark
ENCODING 170
SWIDTH 833 0
DWIDTH 10 0
BBX 7 4 2 5
BITMAP
D4
9E
9C
AC
ENDCHAR
STARTCHAR acute
ENCODING 171
SWIDTH 500 0
DWIDTH 6 0
BBX 2 2 2 7
BITMAP
40
80
ENDCHAR
STARTCHAR dieresis
ENCODING 172
SWIDTH 500 0
DWIDTH 6 0
BBX 3 1 2 8
BITMAP
A0
ENDCHAR
STARTCHAR AE
ENCODING 174
SWIDTH 884 0
DWIDTH 11 0
BBX 11 9 -1 0
BITMAP
03E0
0700
0A00
0A00
13E0
2200
7C00
4400
87C0
ENDCHAR
STARTCHAR Oslash
ENCODING 175
SWIDTH 891 0
DWIDTH 11 0
BBX 9 11 1 -1
BITMAP
0080
1F80
2100
4280
8480
8880
9080
A100
C200
FC00
8000
ENDCHAR
STARTCHAR plusminus
ENCODING 177
SWIDTH 833 0
DWIDTH 10 0
BBX 7 7 1 0
BITMAP
08
08
FE
10
10
00
FE
ENDCHAR
STARTCHAR yen
ENCODING 180
SWIDTH 556 0
DWIDTH 7 0
BBX 7 9 0 0
BITMAP
42
44
24
EE
30
FC
20
20
20
ENDCHAR
STARTCHAR mu
ENCODING 181
SWIDTH 590 0
DWIDTH 7 0
BBX 8 9 -1 -3
BITMAP
11
13
22
22
64
7E
40
80
80
ENDCHAR
STARTCHAR ordfeminine
ENCODING 187
SWIDTH 498 0
DWIDTH 6 0
BBX 5 4 1 5
BITMAP
78
88
98
68
ENDCHAR
STARTCHAR ordmasculine
ENCODING 188
SWIDTH 464 0
DWIDTH 6 0
BBX 4 4 1 5
BITMAP
70
90
90
E0
ENDCHAR
STARTCHAR ae
ENCODING 190
SWIDTH 1072 0
DWIDTH 13 0
BBX 11 6 1 0
BITMAP
3DC0
C620
87E0
8400
8C40
7B80
ENDCHAR
STARTCHAR oslash
ENCODING 191
SWIDTH 618 0
DWIDTH 7 0
BBX 7 8 0 -1
BITMAP
02
3C
4E
96
A4
CC
F0
80
ENDCHAR
STARTCHAR questiondown
ENCODING 192
SWIDTH 491 0
DWIDTH 6 0
BBX 4 9 0 0
BITMAP
10
00
10
10
20
40
80
90
E0
ENDCHAR
STARTCHAR exclamdown
ENCODING 193
SWIDTH 278 0
DWIDTH 3 0
BBX 2 9 1 0
BITMAP
40
40
00
40
40
80
80
80
80
ENDCHAR
STARTCHAR logicalnot
ENCODING 194
SWIDTH 833 0
DWIDTH 10 0
BBX 6 3 2 2
BITMAP
FC
04
04
ENDCHAR
STARTCHAR florin
ENCODING 196
SWIDTH 556 0
DWIDTH 7 0
BBX 8 12 -1 -3
BITMAP
03
04
04
1E
08
08
10
10
30
20
20
C0
ENDCHAR
STARTCHAR guillemotleft
ENCODING 199
SWIDTH 514 0
DWIDTH 6 0
BBX 5 5 1 0
BITMAP
68
D0
B0
90
D0
ENDCHAR
STARTCHAR guillemotright
ENCODING 200
SWIDTH 514 0
DWIDTH 6 0
BBX 5 5 0 0
BITMAP
58
48
28
58
B0
ENDCHAR
STARTCHAR ellipsis
ENCODING 201
SWIDTH 1000 0
DWIDTH 12 0
BBX 9 2 2 0
BITMAP
8880
8880
ENDCHAR
STARTCHAR nbspace
ENCODING 202
SWIDTH 556 0
DWIDTH 7 0
BBX 0 0 0 -3
BITMAP
ENDCHAR
STARTCHAR Agrave
ENCODING 203
SWIDTH 727 0
DWIDTH 9 0
BBX 8 12 -1 0
BITMAP
04
02
00
06
0E
0A
12
32
23
7F
41
81
ENDCHAR
STARTCHAR Atilde
ENCODING 204
SWIDTH 727 0
DWIDTH 9 0
BBX 8 12 -1 0
BITMAP
07
00
00
06
0A
0A
12
32
23
7F
41
81
ENDCHAR
STARTCHAR Otilde
ENCODING 205
SWIDTH 891 0
DWIDTH 11 0
BBX 9 12 1 0
BITMAP
0100
0E00
0000
1F00
2180
4080
8080
8080
8080
8100
C200
7C00
ENDCHAR
STARTCHAR OE
ENCODING 206
SWIDTH 1185 0
DWIDTH 14 0
BBX 13 9 1 0
BITMAP
1F78
61C0
4080
8080
80F8
8180
8100
C300
7DF0
ENDCHAR
STARTCHAR oe
ENCODING 207
SWIDTH 1060 0
DWIDTH 13 0
BBX 12 6 0 0
BITMAP
3DE0
C610
87F0
8400
CA20
73C0
ENDCHAR
STARTCHAR endash
ENCODING 208
SWIDTH 500 0
DWIDTH 6 0
BBX 5 1 0 3
BITMAP
F8
ENDCHAR
STARTCHAR emdash
ENCODING 209
SWIDTH 1000 0
DWIDTH 12 0
BBX 11 1 0 3
BITMAP
FFE0
ENDCHAR
STARTCHAR quotedblleft
ENCODING 210
SWIDTH 491 0
DWIDTH 6 0
BBX 5 3 0 6
BITMAP
68
58
B0
ENDCHAR
STARTCHAR quotedblright
ENCODING 211
SWIDTH 491 0
DWIDTH 6 0
BBX 5 3 0 6
BITMAP
68
D0
B0
ENDCHAR
STARTCHAR quoteleft
ENCODING 212
SWIDTH 278 0
DWIDTH 3 0
BBX 2 3 0 6
BITMAP
40
C0
80
ENDCHAR
STARTCHAR quoteright
ENCODING 213
SWIDTH 278 0
DWIDTH 3 0
BBX 2 3 0 6
BITMAP
40
C0
80
ENDCHAR
STARTCHAR divide
ENCODING 214
SWIDTH 833 0
DWIDTH 10 0
BBX 6 6 2 1
BITMAP
10
10
00
FC
20
20
ENDCHAR
STARTCHAR ydieresis
ENCODING 216
SWIDTH 556 0
DWIDTH 7 0
BBX 6 12 1 -3
BITMAP
28
00
00
84
C8
58
50
60
60
40
C0
80
ENDCHAR
STARTCHAR Ydieresis
ENCODING 217
SWIDTH 613 0
DWIDTH 7 0
BBX 7 12 1 0
BITMAP
2C
00
00
86
CC
48
50
60
20
60
40
40
ENDCHAR
STARTCHAR currency
ENCODING 219
SWIDTH 606 0
DWIDTH 7 0
BBX 7 6 0 2
BITMAP
5A
24
44
48
FC
84
ENDCHAR
STARTCHAR guilsinglleft
ENCODING 220
SWIDTH 322 0
DWIDTH 4 0
BBX 2 5 1 0
BITMAP
40
80
80
80
80
ENDCHAR
STARTCHAR guilsinglright
ENCODING 221
SWIDTH 322 0
DWIDTH 4 0
BBX 2 5 1 0
BITMAP
40
40
40
40
80
ENDCHAR
STARTCHAR daggerdbl
ENCODING 224
SWIDTH 500 0
DWIDTH 6 0
BBX 5 9 1 0
BITMAP
10
10
78
20
20
20
F0
40
40
ENDCHAR
STARTCHAR periodcentered
ENCODING 225
SWIDTH 278 0
DWIDTH 3 0
BBX 1 2 1 4
BITMAP
80
80
ENDCHAR
STARTCHAR quotesinglbase
ENCODING 226
SWIDTH 278 0
DWIDTH 3 0
BBX 2 3 0 -2
BITMAP
40
C0
80
ENDCHAR
STARTCHAR quotedblbase
ENCODING 227
SWIDTH 491 0
DWIDTH 6 0
BBX 5 3 0 -2
BITMAP
68
D0
B0
ENDCHAR
STARTCHAR perthousand
ENCODING 228
SWIDTH 1252 0
DWIDTH 15 0
BBX 12 9 1 0
BITMAP
6200
A400
A400
A800
D000
1730
2550
4950
4660
ENDCHAR
STARTCHAR Acircumflex
ENCODING 229
SWIDTH 727 0
DWIDTH 9 0
BBX 8 12 -1 0
BITMAP
02
05
00
06
0E
0A
12
32
23
7F
41
81
ENDCHAR
STARTCHAR Ecircumflex
ENCODING 230
SWIDTH 569 0
DWIDTH 7 0
BBX 6 12 0 0
BITMAP
0C
14
00
7C
40
40
40
78
C0
80
80
F8
ENDCHAR
STARTCHAR Aacute
ENCODING 231
SWIDTH 727 0
DWIDTH 9 0
BBX 8 12 -1 0
BITMAP
01
02
00
06
0E
0A
12
32
23
7F
41
81
ENDCHAR
STARTCHAR Edieresis
ENCODING 232
SWIDTH 569 0
DWIDTH 7 0
BBX 6 12 0 0
BITMAP
14
14
00
7C
40
40
40
78
C0
80
80
F8
ENDCHAR
STARTCHAR Egrave
ENCODING 233
SWIDTH 569 0
DWIDTH 7 0
BBX 6 12 0 0
BITMAP
18
08
00
7C
40
40
40
78
C0
80
80
F8
ENDCHAR
STARTCHAR Iacute
ENCODING 234
SWIDTH 278 0
DWIDTH 3 0
BBX 4 12 0 0
BITMAP
10
20
00
60
40
40
40
40
C0
80
80
80
ENDCHAR
STARTCHAR Icircumflex
ENCODING 235
SWIDTH 278 0
DWIDTH 3 0
BBX 4 12 0 0
BITMAP
30
50
00
20
60
40
40
40
C0
80
80
80
ENDCHAR
STARTCHAR Idieresis
ENCODING 236
SWIDTH 278 0
DWIDTH 3 0
BBX 4 12 0 0
BITMAP
50
00
00
60
40
40
40
40
C0
80
80
80
ENDCHAR
STARTCHAR Igrave
ENCODING 237
SWIDTH 278 0
DWIDTH 3 0
BBX 3 12 0 0
BITMAP
20
20
00
20
60
40
40
40
C0
80
80
80
ENDCHAR
STARTCHAR Oacute
ENCODING 238
SWIDTH 891 0
DWIDTH 11 0
BBX 9 12 1 0
BITMAP
0300
0400
0000
1F00
2180
4080
8080
8080
8080
8100
C200
7C00
ENDCHAR
STARTCHAR Ocircumflex
ENCODING 239
SWIDTH 891 0
DWIDTH 11 0
BBX 9 12 1 0
BITMAP
0600
0E00
0000
1F00
2180
4080
8080
8080
8080
8100
C200
7C00
ENDCHAR
STARTCHAR Ograve
ENCODING 241
SWIDTH 891 0
DWIDTH 11 0
BBX 9 12 1 0
BITMAP
0400
0400
0200
1F00
2180
4080
8080
8080
8080
8100
C200
7C00
ENDCHAR
STARTCHAR Uacute
ENCODING 242
SWIDTH 748 0
DWIDTH 9 0
BBX 9 12 0 0
BITMAP
0200
0400
0000
4080
4180
4180
C100
8100
8300
8200
C600
7800
ENDCHAR
STARTCHAR Ucircumflex
ENCODING 243
SWIDTH 748 0
DWIDTH 9 0
BBX 9 12 0 0
BITMAP
0600
0A00
0000
4080
4180
4180
C100
8100
8300
8200
C600
7800
ENDCHAR
STARTCHAR Ugrave
ENCODING 244
SWIDTH 748 0
DWIDTH 9 0
BBX 9 12 0 0
BITMAP
0C00
0400
0000
4080
4180
4180
C100
8100
8300
8200
C600
7800
ENDCHAR
STARTCHAR circumflex
ENCODING 246
SWIDTH 500 0
DWIDTH 6 0
BBX 3 2 1 7
BITMAP
60
A0
ENDCHAR
STARTCHAR tilde
ENCODING 247
SWIDTH 500 0
DWIDTH 6 0
BBX 3 2 2 7
BITMAP
60
C0
ENDCHAR
STARTCHAR macron
ENCODING 248
SWIDTH 500 0
DWIDTH 6 0
BBX 3 1 2 8
BITMAP
E0
ENDCHAR
STARTCHAR cedilla
ENCODING 252
SWIDTH 500 0
DWIDTH 6 0
BBX 3 3 2 -3
BITMAP
40
20
C0
ENDCHAR
ENDFONT
